<?xml version="1.0" encoding="UTF-8"?><svg id="Layer_1" xmlns="http://www.w3.org/2000/svg" viewBox="0 0 447.61 584.97"><defs><style>.cls-1{fill:#1a73b2;}.cls-1,.cls-2,.cls-3{stroke-width:0px;}.cls-2{fill:#338fbf;}.cls-3{fill:#d8f0f7;}</style></defs><polygon class="cls-2" points="283.81 437.36 283.81 584.97 .04 584.97 .04 553.27 283.77 431.69 283.81 437.36"/><polygon class="cls-2" points="0 42.92 0 130.38 204.06 42.92 0 42.92"/><polygon class="cls-1" points="204.06 86.65 0 174.11 0 217.08 283.77 95.46 283.77 86.65 283.77 52.49 204.06 86.65"/><polygon class="cls-1" points="283.77 179.52 283.77 137.04 283.77 136.55 0 258.16 0 301.13 283.77 179.52 283.77 179.52"/><polygon class="cls-1" points="283.77 263.57 283.77 220.6 283.77 220.6 0 342.22 0 385.19 283.77 263.57 283.77 263.57"/><polygon class="cls-1" points="283.77 347.63 283.77 304.66 283.77 304.66 0 426.28 0 469.25 283.77 347.63 283.77 347.63"/><polygon class="cls-1" points="283.77 431.69 283.77 389.21 283.77 388.72 0 510.34 0 553.31 283.77 431.69 283.77 431.69"/><polygon class="cls-3" points="283.77 388.72 447.6 503.51 447.6 467.61 283.77 347.63 283.77 388.72"/><polygon class="cls-3" points="447.61 551.69 447.61 584.97 283.81 584.97 283.77 431.69 447.61 551.69"/><polygon class="cls-3" points="283.77 304.66 447.6 419.46 447.6 383.55 283.77 263.57 283.77 304.66"/><polygon class="cls-3" points="332.03 0 332.03 46.74 283.77 11.4 283.77 95.46 283.77 179.52 283.77 220.61 447.6 335.4 447.6 299.49 447.6 215.44 447.6 131.66 447.6 131.38 447.6 80.98 332.03 0"/></svg>