<svg xmlns="http://www.w3.org/2000/svg" width="40.958" height="40.958" viewBox="0 0 40.958 40.958">
  <g id="Group_155" data-name="Group 155" transform="translate(-1726.347 -3740.954)">
    <path id="Path_38" data-name="Path 38" d="M99.236,83.053H79.09A20.486,20.486,0,0,1,99.236,68.509Z" transform="translate(1648.129 3672.451)" fill="#00319c"/>
    <path id="Path_39" data-name="Path 39" d="M205.616,132.745l-1.305.949.5,1.536-1.305-.949-1.306.949.5-1.536-1.306-.949H203l.5-1.535.5,1.535Z" transform="translate(1539.011 3616.502)" fill="#e9efff"/>
    <path id="Path_40" data-name="Path 40" d="M146.007,132.745l-1.306.949.5,1.536-1.306-.949-1.306.949.5-1.536-1.306-.949h1.615l.5-1.535.5,1.535Z" transform="translate(1592.196 3616.502)" fill="#e9efff"/>
    <path id="Path_41" data-name="Path 41" d="M111.846,86.877A20.4,20.4,0,0,0,106.9,75.56a20.446,20.446,0,0,0-14.883-7V83.1H71.872a20.294,20.294,0,0,0-.76,3.773A20.676,20.676,0,0,0,71,89.033q0,.816.062,1.617a20.5,20.5,0,0,0,8.57,15.09h0A20.468,20.468,0,0,0,111.9,90.65q.061-.8.063-1.617A20.644,20.644,0,0,0,111.846,86.877Z" transform="translate(1655.347 3672.4)" fill="#d62918"/>
    <path id="Path_42" data-name="Path 42" d="M107.356,128.68h0a20.565,20.565,0,0,1-4.031,3.773H79.633A20.565,20.565,0,0,1,75.6,128.68Zm3.883-7.545h0a20.33,20.33,0,0,1-1.443,3.772H73.16a20.262,20.262,0,0,1-1.443-3.773H111.24Zm.719-5.389q0,.816-.063,1.617H71.062q-.061-.8-.062-1.617a20.676,20.676,0,0,1,.112-2.156h40.734A20.645,20.645,0,0,1,111.959,115.746Zm-.872-5.928H92.018v-3.773h17.5A20.3,20.3,0,0,1,111.087,109.818Zm-4.185-7.545H92.018V98.5h10.51A20.523,20.523,0,0,1,106.9,102.272Z" transform="translate(1655.347 3645.687)" fill="#e9efff"/>
    <path id="Path_44" data-name="Path 44" d="M112.773,144.818H72.039a20.3,20.3,0,0,1,.76-3.773h39.215A20.293,20.293,0,0,1,112.773,144.818Zm-2.327-7.545h-17.5V133.5h14.883A20.436,20.436,0,0,1,110.446,137.273Z" transform="translate(1654.42 3614.459)" fill="#d62918"/>
    <path id="Path_45" data-name="Path 45" d="M276.51,71.787H266V68.56A20.372,20.372,0,0,1,276.51,71.787Z" transform="translate(1481.365 3672.4)" fill="#d62918"/>
  </g>
</svg>
